<svg width="24" height="24" viewBox="0 0 24 25" fill="none" xmlns="http://www.w3.org/2000/svg">
<path d="M6.5 16.3643C7.28333 16.3643 8.04583 16.4503 8.7875 16.6222C9.52917 16.7941 10.2667 17.052 11 17.3958V7.71968C10.3167 7.32674 9.59167 7.03204 8.825 6.83557C8.05833 6.6391 7.28333 6.54086 6.5 6.54086C5.9 6.54086 5.30417 6.59817 4.7125 6.71278C4.12083 6.82738 3.55 6.99929 3 7.22851V16.9537C3.58333 16.7573 4.1625 16.6099 4.7375 16.5117C5.3125 16.4134 5.9 16.3643 6.5 16.3643ZM13 17.3958C13.7333 17.052 14.4708 16.7941 15.2125 16.6222C15.9542 16.4503 16.7167 16.3643 17.5 16.3643C18.1 16.3643 18.6875 16.4134 19.2625 16.5117C19.8375 16.6099 20.4167 16.7573 21 16.9537V7.22851C20.45 6.99929 19.8792 6.82738 19.2875 6.71278C18.6958 6.59817 18.1 6.54086 17.5 6.54086C16.7167 6.54086 15.9417 6.6391 15.175 6.83557C14.4083 7.03204 13.6833 7.32674 13 7.71968V17.3958ZM12 19.778C11.7667 19.778 11.5458 19.7493 11.3375 19.692C11.1292 19.6347 10.9333 19.557 10.75 19.4587C10.1 19.0822 9.41667 18.7997 8.7 18.6114C7.98333 18.4232 7.25 18.329 6.5 18.329C5.8 18.329 5.1125 18.4191 4.4375 18.5992C3.7625 18.7793 3.11667 19.033 2.5 19.3605C2.15 19.5406 1.8125 19.5324 1.4875 19.3359C1.1625 19.1395 1 18.8529 1 18.4764V6.6391C1 6.459 1.04583 6.28709 1.1375 6.12337C1.22917 5.95964 1.36667 5.83685 1.55 5.75499C2.31667 5.36205 3.11667 5.06735 3.95 4.87088C4.78333 4.67441 5.63333 4.57617 6.5 4.57617C7.46667 4.57617 8.4125 4.69897 9.3375 4.94455C10.2625 5.19014 11.15 5.55852 12 6.04969C12.85 5.55852 13.7375 5.19014 14.6625 4.94455C15.5875 4.69897 16.5333 4.57617 17.5 4.57617C18.3667 4.57617 19.2167 4.67441 20.05 4.87088C20.8833 5.06735 21.6833 5.36205 22.45 5.75499C22.6333 5.83685 22.7708 5.95964 22.8625 6.12337C22.9542 6.28709 23 6.459 23 6.6391V18.4764C23 18.8529 22.8375 19.1395 22.5125 19.3359C22.1875 19.5324 21.85 19.5406 21.5 19.3605C20.8833 19.033 20.2375 18.7793 19.5625 18.5992C18.8875 18.4191 18.2 18.329 17.5 18.329C16.75 18.329 16.0167 18.4232 15.3 18.6114C14.5833 18.7997 13.9 19.0822 13.25 19.4587C13.0667 19.557 12.8708 19.6347 12.6625 19.692C12.4542 19.7493 12.2333 19.778 12 19.778ZM14 9.26688C14 9.11952 14.0542 8.96808 14.1625 8.81254C14.2708 8.657 14.3917 8.55468 14.525 8.50556C15.0083 8.34183 15.4917 8.21904 15.975 8.13718C16.4583 8.05532 16.9667 8.01438 17.5 8.01438C17.8333 8.01438 18.1625 8.03485 18.4875 8.07578C18.8125 8.11671 19.1333 8.16992 19.45 8.23541C19.6 8.26816 19.7292 8.35002 19.8375 8.481C19.9458 8.61198 20 8.75933 20 8.92306C20 9.20139 19.9083 9.40604 19.725 9.53702C19.5417 9.668 19.3083 9.70075 19.025 9.63526C18.7917 9.58614 18.5458 9.5493 18.2875 9.52474C18.0292 9.50018 17.7667 9.4879 17.5 9.4879C17.0667 9.4879 16.6417 9.52884 16.225 9.6107C15.8083 9.69256 15.4083 9.79898 15.025 9.92996C14.725 10.0446 14.4792 10.0364 14.2875 9.9054C14.0958 9.77442 14 9.56158 14 9.26688ZM14 14.6698C14 14.5224 14.0542 14.371 14.1625 14.2154C14.2708 14.0599 14.3917 13.9576 14.525 13.9085C15.0083 13.7447 15.4917 13.6219 15.975 13.5401C16.4583 13.4582 16.9667 13.4173 17.5 13.4173C17.8333 13.4173 18.1625 13.4378 18.4875 13.4787C18.8125 13.5196 19.1333 13.5728 19.45 13.6383C19.6 13.6711 19.7292 13.7529 19.8375 13.8839C19.9458 14.0149 20 14.1622 20 14.326C20 14.6043 19.9083 14.8089 19.725 14.9399C19.5417 15.0709 19.3083 15.1037 19.025 15.0382C18.7917 14.989 18.5458 14.9522 18.2875 14.9276C18.0292 14.9031 17.7667 14.8908 17.5 14.8908C17.0667 14.8908 16.6417 14.9276 16.225 15.0013C15.8083 15.075 15.4083 15.1773 15.025 15.3083C14.725 15.4229 14.4792 15.4188 14.2875 15.296C14.0958 15.1732 14 14.9645 14 14.6698ZM14 11.9683C14 11.821 14.0542 11.6695 14.1625 11.514C14.2708 11.3585 14.3917 11.2561 14.525 11.207C15.0083 11.0433 15.4917 10.9205 15.975 10.8386C16.4583 10.7568 16.9667 10.7158 17.5 10.7158C17.8333 10.7158 18.1625 10.7363 18.4875 10.7772C18.8125 10.8182 19.1333 10.8714 19.45 10.9369C19.6 10.9696 19.7292 11.0515 19.8375 11.1825C19.9458 11.3134 20 11.4608 20 11.6245C20 11.9028 19.9083 12.1075 19.725 12.2385C19.5417 12.3695 19.3083 12.4022 19.025 12.3367C18.7917 12.2876 18.5458 12.2508 18.2875 12.2262C18.0292 12.2016 17.7667 12.1894 17.5 12.1894C17.0667 12.1894 16.6417 12.2303 16.225 12.3122C15.8083 12.394 15.4083 12.5004 15.025 12.6314C14.725 12.746 14.4792 12.7378 14.2875 12.6069C14.0958 12.4759 14 12.263 14 11.9683Z" fill="url(#paint0_linear_8_84)"/>
<defs>
<linearGradient id="paint0_linear_8_84" x1="12" y1="4.57617" x2="12" y2="19.778" gradientUnits="userSpaceOnUse">
<stop stop-color="#55E6B2"/>
<stop offset="1" stop-color="#29B683"/>
</linearGradient>
</defs>
</svg>
