<svg width="24" height="24" viewBox="0 0 24 24" fill="none" xmlns="http://www.w3.org/2000/svg">
<path d="M15.1 18.9495L14.225 21.3317C14.1583 21.5118 14.0417 21.6591 13.875 21.7737C13.7083 21.8883 13.525 21.9456 13.325 21.9456C12.9917 21.9456 12.7208 21.8106 12.5125 21.5404C12.3042 21.2703 12.2667 20.9715 12.4 20.644L16.2 10.7714C16.2833 10.5913 16.4083 10.444 16.575 10.3294C16.7417 10.2148 16.925 10.1575 17.125 10.1575H17.875C18.075 10.1575 18.2583 10.2148 18.425 10.3294C18.5917 10.444 18.7167 10.5913 18.8 10.7714L22.6 20.6686C22.7333 20.9797 22.7 21.2703 22.5 21.5404C22.3 21.8106 22.0333 21.9456 21.7 21.9456C21.4833 21.9456 21.2958 21.8842 21.1375 21.7614C20.9792 21.6387 20.8583 21.479 20.775 21.2826L19.95 18.9495H15.1ZM15.7 17.2304H19.3L17.55 12.3678H17.45L15.7 17.2304ZM9 14.0869L4.7 18.311C4.51667 18.4911 4.28333 18.5811 4 18.5811C3.71667 18.5811 3.48333 18.4911 3.3 18.311C3.11667 18.1309 3.025 17.9016 3.025 17.6233C3.025 17.345 3.11667 17.1158 3.3 16.9357L7.65 12.6625C7.01667 11.9748 6.4625 11.2626 5.9875 10.5259C5.5125 9.7891 5.1 9.01141 4.75 8.19279H6.85C7.15 8.78219 7.47083 9.3143 7.8125 9.7891C8.15417 10.2639 8.56667 10.7633 9.05 11.2872C9.78333 10.5013 10.3917 9.69496 10.875 8.86815C11.3583 8.04134 11.7667 7.16132 12.1 6.22809H2C1.71667 6.22809 1.47917 6.13395 1.2875 5.94567C1.09583 5.75738 1 5.52408 1 5.24575C1 4.96741 1.09583 4.73411 1.2875 4.54582C1.47917 4.35754 1.71667 4.2634 2 4.2634H8V3.28105C8 3.00272 8.09583 2.76941 8.2875 2.58113C8.47917 2.39285 8.71667 2.29871 9 2.29871C9.28333 2.29871 9.52083 2.39285 9.7125 2.58113C9.90417 2.76941 10 3.00272 10 3.28105V4.2634H16C16.2833 4.2634 16.5208 4.35754 16.7125 4.54582C16.9042 4.73411 17 4.96741 17 5.24575C17 5.52408 16.9042 5.75738 16.7125 5.94567C16.5208 6.13395 16.2833 6.22809 16 6.22809H14.1C13.75 7.39054 13.275 8.52023 12.675 9.61719C12.075 10.7141 11.3333 11.7456 10.45 12.7116L12.85 15.1183L12.1 17.1321L9 14.0869Z" fill="url(#paint0_linear_8_86)"/>
<defs>
<linearGradient id="paint0_linear_8_86" x1="11.84" y1="2.29871" x2="11.84" y2="21.9456" gradientUnits="userSpaceOnUse">
<stop stop-color="#55E6B2"/>
<stop offset="1" stop-color="#29B683"/>
</linearGradient>
</defs>
</svg>
