<svg width="100" height="40" viewBox="0 0 100 40" fill="none" xmlns="http://www.w3.org/2000/svg">
<path d="M21.7957 4.56922L21.1377 9.44821H14.1055V31.4037H7.36119V9.44821H0V4.56922H21.7957Z" fill="#141414"/>
<path d="M30.8857 10.8422V31.4037H24.3881V10.8422H30.8857ZM27.5958 0C28.7198 0 29.6383 0.335593 30.3511 1.00678C31.0913 1.65215 31.4614 2.47822 31.4614 3.485C31.4614 4.49177 31.0913 5.33075 30.3511 6.00194C29.6383 6.64731 28.7198 6.96999 27.5958 6.96999C26.4717 6.96999 25.5533 6.64731 24.8405 6.00194C24.1277 5.33075 23.7713 4.49177 23.7713 3.485C23.7713 2.47822 24.1277 1.65215 24.8405 1.00678C25.5533 0.335593 26.4717 0 27.5958 0Z" fill="#141414"/>
<path d="M53.3487 25.4405C53.3487 26.2149 53.4584 26.7828 53.6777 27.1442C53.9245 27.5056 54.3083 27.7767 54.8292 27.9574L53.4721 31.9458C52.1287 31.8425 51.0321 31.5715 50.1822 31.1326C49.3323 30.668 48.6743 29.9451 48.2082 28.9642C46.7826 31.0294 44.5893 32.062 41.6284 32.062C39.4625 32.062 37.7353 31.4682 36.4468 30.2807C35.1582 29.0933 34.5139 27.5444 34.5139 25.6341C34.5139 23.3882 35.3912 21.6715 37.1459 20.484C38.9005 19.2965 41.4365 18.7028 44.7538 18.7028H46.9745V17.8122C46.9745 16.5989 46.7003 15.7728 46.152 15.334C45.6037 14.8693 44.6441 14.637 43.2733 14.637C42.5605 14.637 41.6969 14.7402 40.6825 14.9468C39.6681 15.1275 38.6263 15.3856 37.5571 15.7212L36.0766 11.6941C37.4474 11.2036 38.8457 10.8293 40.2713 10.5712C41.7243 10.313 43.0677 10.1839 44.3014 10.1839C47.4269 10.1839 49.7161 10.7906 51.1691 12.0039C52.6222 13.2172 53.3487 15.0371 53.3487 17.4637V25.4405ZM43.5201 27.6864C45.0005 27.6864 46.152 27.0281 46.9745 25.7115V22.0716H45.3707C43.8902 22.0716 42.7799 22.3169 42.0396 22.8074C41.3268 23.2978 40.9704 24.0594 40.9704 25.092C40.9704 25.918 41.1897 26.5634 41.6284 27.0281C42.0945 27.4669 42.725 27.6864 43.5201 27.6864Z" fill="#141414"/>
<path d="M78.2323 12.0426C76.8066 12.5847 74.7093 12.8558 71.9403 12.8558C73.3659 13.4237 74.4077 14.1207 75.0657 14.9468C75.7237 15.7728 76.0527 16.8441 76.0527 18.1607C76.0527 19.4773 75.6826 20.6647 74.9423 21.7231C74.2021 22.7557 73.1329 23.5689 71.7347 24.1626C70.3639 24.7564 68.7463 25.0532 66.882 25.0532C66.0047 25.0532 65.1685 24.9758 64.3735 24.8209C64.1541 24.9242 63.9759 25.092 63.8389 25.3243C63.7292 25.5308 63.6744 25.7502 63.6744 25.9826C63.6744 26.3698 63.8252 26.6796 64.1267 26.9119C64.4557 27.1184 65.1 27.2217 66.0596 27.2217H69.3495C71.0218 27.2217 72.4886 27.4798 73.7497 27.9961C75.0109 28.5124 75.9841 29.2223 76.6695 30.1258C77.3549 31.0294 77.6976 32.0491 77.6976 33.1849C77.6976 35.3275 76.7107 36.9926 74.7367 38.1801C72.7902 39.3934 69.9663 40 66.2652 40C63.6058 40 61.5085 39.7289 59.9732 39.1868C58.4379 38.6705 57.355 37.9348 56.7244 36.9797C56.1213 36.0245 55.8197 34.8241 55.8197 33.3785H61.6593C61.6593 33.9981 61.7827 34.4885 62.0294 34.85C62.3036 35.2114 62.7833 35.4824 63.4687 35.6631C64.1541 35.8438 65.1411 35.9342 66.4297 35.9342C68.2117 35.9342 69.4454 35.7277 70.1308 35.3146C70.8162 34.9274 71.1589 34.3595 71.1589 33.6108C71.1589 32.9913 70.8985 32.5008 70.3776 32.1394C69.8567 31.778 69.0753 31.5973 68.0335 31.5973H64.867C62.6188 31.5973 60.9328 31.223 59.8087 30.4743C58.7121 29.6999 58.1638 28.7189 58.1638 27.5315C58.1638 26.7828 58.3968 26.06 58.8629 25.363C59.3289 24.6402 59.9595 24.0465 60.7546 23.5818C59.3838 22.8848 58.3831 22.0716 57.7525 21.1423C57.1494 20.1872 56.8478 19.0384 56.8478 17.696C56.8478 15.3985 57.7251 13.5786 59.4797 12.2362C61.2343 10.868 63.551 10.1839 66.4297 10.1839C68.623 10.2356 70.4735 10.029 71.9814 9.56438C73.5167 9.09971 75.0931 8.41562 76.7107 7.5121L78.2323 12.0426ZM66.5942 14.211C65.5798 14.211 64.771 14.5208 64.1679 15.1404C63.5921 15.7341 63.3042 16.5602 63.3042 17.6186C63.3042 18.7286 63.5921 19.5934 64.1679 20.213C64.771 20.8067 65.5798 21.1036 66.5942 21.1036C67.6634 21.1036 68.4722 20.8067 69.0205 20.213C69.5962 19.6192 69.8841 18.7286 69.8841 17.5411C69.8841 15.3211 68.7874 14.211 66.5942 14.211Z" fill="#141414"/>
<path d="M89.3078 10.1839C92.6525 10.1839 95.2708 11.152 97.1625 13.0881C99.0542 14.9984 100 17.6831 100 21.1423C100 23.3366 99.5614 25.2598 98.684 26.9119C97.8341 28.5382 96.6004 29.8032 94.9829 30.7067C93.3928 31.6102 91.501 32.062 89.3078 32.062C85.9904 32.062 83.3722 31.1068 81.4531 29.1965C79.5614 27.2604 78.6155 24.5628 78.6155 21.1036C78.6155 18.9093 79.0405 16.999 79.8904 15.3727C80.7677 13.7206 82.0014 12.4427 83.5915 11.5392C85.2091 10.6357 87.1145 10.1839 89.3078 10.1839ZM89.3078 14.6757C87.9918 14.6757 87.0048 15.2049 86.3468 16.2633C85.6889 17.2959 85.3599 18.9093 85.3599 21.1036C85.3599 23.3495 85.6752 24.9887 86.3057 26.0213C86.9637 27.0539 87.9644 27.5702 89.3078 27.5702C90.6237 27.5702 91.6107 27.0539 92.2687 26.0213C92.9267 24.9629 93.2557 23.3366 93.2557 21.1423C93.2557 18.8964 92.9267 17.2572 92.2687 16.2246C91.6381 15.192 90.6512 14.6757 89.3078 14.6757Z" fill="#141414"/>
</svg>
